<svg width="20" height="20" viewBox="0 0 20 20" fill="none" xmlns="http://www.w3.org/2000/svg">
<path d="M10 0C4.48 0 0 4.48 0 10C0 15.52 4.48 20 10 20C15.52 20 20 15.52 20 10C20 4.48 15.52 0 10 0ZM9.61 9.84C9.61 12.92 8.94 13.61 7.15 14.67C7.03 14.74 6.9 14.77 6.77 14.77C6.51 14.77 6.26 14.64 6.12 14.4C5.91 14.04 6.03 13.58 6.38 13.37C7.59 12.65 8.01 12.39 8.09 10.58H6.19C5.1 10.58 4.25 9.73 4.25 8.64V7.16C4.25 6.07 5.1 5.22 6.19 5.22H7.68C8.75 5.22 9.62 6.09 9.62 7.16V9.84H9.61ZM15.75 9.84C15.75 12.92 15.08 13.61 13.29 14.67C13.17 14.74 13.04 14.77 12.91 14.77C12.65 14.77 12.4 14.64 12.26 14.4C12.05 14.04 12.17 13.58 12.52 13.37C13.73 12.65 14.15 12.39 14.23 10.58H12.32C11.23 10.58 10.38 9.73 10.38 8.64V7.16C10.38 6.07 11.23 5.22 12.32 5.22H13.81C14.88 5.22 15.75 6.09 15.75 7.16V9.84Z" fill="white"/>
</svg>