<svg xmlns="http://www.w3.org/2000/svg" xmlns:xlink="http://www.w3.org/1999/xlink" fill="none" version="1.1" width="119.66780853271484" height="24" viewBox="0 0 119.66780853271484 24"><defs><clipPath id="master_svg0_1_001"><rect x="0" y="0" width="119.66780853271484" height="24" rx="0"/></clipPath></defs><g clip-path="url(#master_svg0_1_001)"><g><path d="M89.1082,5.90096C92.1251,3.91908,95.9841,3.74522,99.167,5.44779C102.35,7.15035,104.347,10.4569,104.373,14.0664L104.373,14.1217L104.373,23.9727L99.9475,23.9727L99.9475,14.1217L99.9475,14.0148C99.8688,11.0952,97.4929,8.76188,94.5723,8.73605C91.6517,8.71022,89.2349,11.0011,89.1045,13.9189C89.1045,13.9816,89.1045,14.048,89.1045,14.1107L89.1045,23.9727L84.6788,23.9727L84.6788,4.27082L89.1045,4.27082L89.1082,5.90096ZM19.7129,14.118L19.7129,23.9727L15.2872,23.9727L15.2872,14.118L15.2872,14.0148C15.3106,11.0162,12.8993,8.56611,9.90069,8.54167C6.90211,8.51724,4.45119,10.9277,4.42572,13.9263C4.42572,13.989,4.42572,14.0554,4.42572,14.118L4.42572,23.9727L0,23.9727L0,0L4.42572,0L4.42572,5.90096C7.44334,3.90999,11.3087,3.73046,14.4978,5.43315C17.687,7.13584,19.6884,10.4476,19.7129,14.0627L19.7129,14.118ZM62.0523,14.118L62.0523,23.9727L57.6266,23.9727L57.6266,14.118L57.6266,14.0148C57.5804,11.0707,55.1943,8.70086,52.25,8.67483C49.3057,8.6488,46.8781,10.9761,46.7799,13.9189C46.7799,13.9816,46.7799,14.048,46.7799,14.1107L46.7799,23.9727L42.3541,23.9727L42.3541,0L46.7799,0L46.7799,5.90096C49.799,3.91096,53.6653,3.73355,56.854,5.4387C60.0427,7.14385,62.042,10.4579,62.0634,14.0738L62.0634,14.1291L62.0523,14.118ZM68.4106,11.9052L78.3205,11.9052C77.446,9.95193,75.5056,8.69467,73.3655,8.69467C71.2255,8.69467,69.2851,9.95193,68.4106,11.9052ZM73.3674,4.26713C79.6963,4.27902,84.3747,10.1666,82.9565,16.3346L68.4106,16.3346C69.9944,19.9012,74.7129,20.6792,77.3579,17.8098L82.5213,17.8098C80.6743,22.415,75.6925,24.9299,70.8905,23.6812C66.0884,22.4325,62.9627,17.8095,63.593,12.8879C64.2232,7.9664,68.413,4.2802,73.3748,4.28189L73.3674,4.26713ZM24.7103,6.55376C28.4005,3.4707,33.7766,3.49983,37.4332,6.6227C41.0898,9.74558,41.9598,15.0509,39.4922,19.1781C39.1133,17.5388,37.6671,16.3679,35.9848,16.3383C37.5066,12.9372,35.2309,9.04846,31.5203,8.70943C27.8097,8.3704,24.8669,11.7823,25.7472,15.4029C26.6275,19.0235,30.8082,20.7035,33.949,18.6987C34.3179,18.3941,34.7214,18.1341,35.1513,17.9242C36.0826,17.5947,37.1194,17.9224,37.6922,18.7272C38.265,19.532,38.235,20.619,37.6186,21.391C37.4595,21.5742,37.2801,21.7387,37.0839,21.8815C32.8396,25.0863,26.8182,24.3453,23.4776,20.2071C20.137,16.069,20.6825,10.0267,24.7103,6.55376ZM103.355,6.68653C106.26,4.1621,110.369,3.56045,113.876,5.1461C117.382,6.73175,119.645,10.2143,119.668,14.0627L119.668,14.1181L119.668,23.9727L115.242,23.9727L115.242,14.1217L115.242,14.0148C115.196,11.678,113.659,9.63301,111.427,8.93848C109.196,8.24395,106.77,9.05575,105.406,10.9537C104.966,9.43593,104.212,8.02747,103.193,6.8193L103.355,6.68653Z" fill-rule="evenodd" fill="#4D4D4D" fill-opacity="1"/></g></g></svg>