<svg class="hidden mini:inline-block" style="width:108px;height:16px" viewBox="0 0 193 28" fill="none" xmlns="http://www.w3.org/2000/svg"><path fill-rule="evenodd" clip-rule="evenodd" d="M130.016 2.20176C130.016 0.997498 129.027 0 127.842 0H111.737C110.353 0 109.289 1.08161 109.289 2.48098V25.5204C109.289 26.9211 110.353 28 111.737 28H128.037C129.226 28 130.217 27.0381 130.217 25.7996C130.217 24.6012 129.226 23.5979 128.037 23.5979H114.155V16.0835H126.061C127.244 16.0835 128.234 15.1187 128.234 13.9203C128.234 12.6775 127.244 11.6813 126.061 11.6813H114.155V4.40197H127.842C129.027 4.40197 130.016 3.44011 130.016 2.20176" fill="currentColor"></path><path fill-rule="evenodd" clip-rule="evenodd" d="M159.724 27.9662H159.91C161.206 27.9662 162.198 26.901 162.198 25.5562V2.36641C162.198 1.07079 161.171 0 159.88 0C158.618 0 157.587 1.07079 157.587 2.36641V19.3281L144.244 1.46421C143.589 0.632271 142.948 0.0364869 141.803 0.0364869H141.307C139.972 0.0364869 138.945 1.14241 138.945 2.48871V25.6392C138.945 26.9404 139.972 28 141.268 28C142.53 28 143.557 26.9404 143.557 25.6392V8.12814L157.279 26.5089C157.93 27.376 158.618 27.9662 159.724 27.9662" fill="currentColor"></path><path fill-rule="evenodd" clip-rule="evenodd" d="M170.779 2.41559C170.779 3.63494 171.737 4.66487 172.956 4.66487H179.444V25.5363C179.444 26.8738 180.522 27.9332 181.813 27.9332C183.111 27.9332 184.184 26.8738 184.184 25.5363V4.66487H190.713C191.901 4.66487 192.851 3.63494 192.851 2.41559C192.851 1.19624 191.901 0.170364 190.713 0.170364H172.956C171.737 0.170364 170.779 1.19624 170.779 2.41559Z" fill="currentColor"></path><path fill-rule="evenodd" clip-rule="evenodd" d="M23.9055 27.9325C25.2444 27.9325 26.2717 26.8731 26.2717 25.5358V2.45845C26.2717 1.11428 25.2444 0.00996399 23.9055 0.00996399H23.4116C22.4618 0.00996399 21.7706 0.447675 21.2766 1.27131L13.1413 14.3915L5.0481 1.31483C4.5813 0.566928 3.89827 0.00996399 2.86147 0.00996399H2.36899C1.03402 0.00996399 0 1.11428 0 2.45845V25.5738C0 26.9124 0.998693 27.9325 2.29686 27.9325C3.58947 27.9325 4.62219 26.9124 4.62219 25.5738V9.07049L11.1139 19.1161C11.6132 19.9048 12.2187 20.372 13.0636 20.372C13.9469 20.372 14.5468 19.9048 15.0461 19.1161L21.5761 8.99746V25.5358C21.5761 26.8353 22.6482 27.9325 23.9055 27.9325" fill="currentColor"></path><path fill-rule="evenodd" clip-rule="evenodd" d="M94.8424 25.5358C94.8424 26.8353 95.9104 27.9325 97.1731 27.9325C98.5092 27.9325 99.5421 26.8731 99.5421 25.5358V2.45845C99.5421 1.11428 98.5092 0.00996399 97.1731 0.00996399H96.6819C95.7213 0.00996399 95.0328 0.447675 94.5403 1.27131L87.9438 11.912L86.4021 14.3915L78.3034 1.31483C77.845 0.566928 77.1646 0.00996399 76.1265 0.00996399H75.6325C74.2962 0.00996399 73.2622 1.11428 73.2622 2.45845V25.5738C73.2622 26.9124 74.2609 27.9325 75.5522 27.9325C76.853 27.9325 77.8885 26.9124 77.8885 25.5738V9.07049L84.3842 19.1161C84.8769 19.9048 85.4837 20.372 86.3232 20.372C87.2022 20.372 87.8159 19.9048 88.3098 19.1161L91.7495 13.7811L94.8424 8.99746V25.5358" fill="currentColor"></path><path fill-rule="evenodd" clip-rule="evenodd" d="M48.2515 26.4045C48.6516 25.1852 48.0148 23.8577 46.8241 23.4438C42.911 22.0799 40.2834 18.308 40.2834 14.0562C40.2834 9.80725 42.911 6.03265 46.8241 4.66588C48.0148 4.25195 48.6516 2.92583 48.2515 1.70226C47.8447 0.478698 46.567 -0.176603 45.3819 0.233108C39.6139 2.24118 35.7471 7.79226 35.7471 14.0562C35.7471 20.3202 39.6139 25.87 45.3819 27.8737C45.6159 27.962 45.8567 28 46.103 28C47.0541 28 47.9331 27.3826 48.2515 26.4045" fill="currentColor"></path><path fill-rule="evenodd" clip-rule="evenodd" d="M64.0664 14.0565C64.0664 7.81082 60.2102 2.26665 54.4683 0.240533C53.2844 -0.173564 51.9959 0.484605 51.5932 1.70817C51.189 2.92752 51.8217 4.25786 53.0068 4.67044C56.9161 6.04834 59.534 9.81181 59.534 14.0565C59.534 18.2928 56.9161 22.062 53.0068 23.4343C51.8217 23.8467 51.189 25.1813 51.5932 26.4006C51.913 27.3773 52.8027 27.9933 53.743 27.9933C53.9797 27.9933 54.2342 27.947 54.4683 27.8629C60.2102 25.8477 64.0664 20.2981 64.0664 14.0565" fill="currentColor"></path></svg>