<!DOCTYPE svg PUBLIC "-//W3C//DTD SVG 20010904//EN" "http://www.w3.org/TR/2001/REC-SVG-20010904/DTD/svg10.dtd">
<svg version="1.0" xmlns="http://www.w3.org/2000/svg" width="960px" height="960px" viewBox="0 0 9600 9600" preserveAspectRatio="xMidYMid meet">
<g id="layer101" fill="#9f1d23" stroke="none">
 <path d="M0 4800 l0 -4800 4800 0 4800 0 0 4800 0 4800 -4800 0 -4800 0 0 -4800z"/>
 </g>
<g id="layer102" fill="#b81820" stroke="none">
 <path d="M0 4800 l0 -4800 4800 0 4800 0 0 4800 0 4800 -4800 0 -4800 0 0 -4800z m2387 -463 c-1 -276 -2 -47 -2 508 0 556 1 781 2 502 2 -280 2 -734 0 -1010z m3760 11 c-1 -277 -2 -51 -2 502 0 553 1 779 2 503 2 -277 2 -729 0 -1005z m1060 -10 c-1 -277 -2 -51 -2 502 0 553 1 779 2 503 2 -277 2 -729 0 -1005z m-2000 1025 c-1 -87 -3 -16 -3 157 0 173 2 244 3 158 2 -87 2 -229 0 -315z m2833 -329 c0 -521 -3 -783 -10 -779 -7 4 -10 279 -10 791 0 521 3 783 10 779 7 -4 10 -279 10 -791z m-5843 419 c-4 -3 -7 0 -7 7 0 7 3 10 7 7 3 -4 3 -10 0 -14z m4393 -49 c0 -8 -5 -12 -10 -9 -6 4 -8 11 -5 16 9 14 15 11 15 -7z m-825 -312 c-3 -3 -11 0 -18 7 -9 10 -8 11 6 5 10 -3 15 -9 12 -12z m50 -52 c10 -11 16 -20 13 -20 -3 0 -13 9 -23 20 -10 11 -16 20 -13 20 3 0 13 -9 23 -20z m-898 -127 c-4 -3 -10 -3 -14 0 -3 4 0 7 7 7 7 0 10 -3 7 -7z m-2090 -100 c-4 -3 -7 0 -7 7 0 7 3 10 7 7 3 -4 3 -10 0 -14z m193 7 c0 -6 -36 -9 -92 -8 l-93 2 90 6 c50 3 91 7 93 8 1 1 2 -2 2 -8z m2410 -8 c0 -4 -9 -13 -20 -20 -19 -12 -20 -11 -8 8 13 20 28 27 28 12z m-4260 -22 c6 -11 9 -20 7 -20 -2 0 -12 9 -22 20 -10 11 -13 20 -7 20 6 0 16 -9 22 -20z m54 -55 c3 -9 0 -12 -9 -9 -7 3 -16 12 -19 19 -3 9 0 12 9 9 7 -3 16 -12 19 -19z m4276 0 c13 -14 21 -25 18 -25 -2 0 -15 11 -28 25 -13 14 -21 25 -18 25 2 0 15 -11 28 -25z m-143 -2 c-4 -3 -10 -3 -14 0 -3 4 0 7 7 7 7 0 10 -3 7 -7z m-30 -30 c-4 -3 -7 0 -7 7 0 7 3 10 7 7 3 -4 3 -10 0 -14z m0 -665 c-1 -106 -2 -20 -2 192 0 212 1 298 2 193 2 -106 2 -280 0 -385z m-3342 552 c3 -5 4 -10 1 -10 -3 0 -8 5 -11 10 -3 6 -4 10 -1 10 3 0 8 -4 11 -10z m-610 -10 c3 -6 -1 -7 -9 -4 -18 7 -21 14 -7 14 6 0 13 -4 16 -10z m30 -30 c3 -5 4 -10 1 -10 -3 0 -8 5 -11 10 -3 6 -4 10 -1 10 3 0 8 -4 11 -10z m45 -40 c6 -11 9 -20 7 -20 -2 0 -12 9 -22 20 -10 11 -13 20 -7 20 6 0 16 -9 22 -20z m720 -105 c13 -14 21 -25 18 -25 -2 0 -15 11 -28 25 -13 14 -21 25 -18 25 2 0 15 -11 28 -25z m695 -25 c4 -6 -5 -10 -20 -10 -15 0 -24 4 -20 10 3 6 12 10 20 10 8 0 17 -4 20 -10z m60 0 c3 -5 -1 -10 -10 -10 -9 0 -13 5 -10 10 3 6 8 10 10 10 2 0 7 -4 10 -10z m92 -6 c2 -6 -10 -8 -32 -6 -19 2 -32 8 -29 14 8 12 56 6 61 -8z m-820 -31 c-4 -3 -7 0 -7 7 0 7 3 10 7 7 3 -4 3 -10 0 -14z m-513 -82 c-6 -6 -23 10 -45 42 l-22 32 35 -35 c20 -19 34 -37 32 -39z m23 -28 c-4 -3 -7 0 -7 7 0 7 3 10 7 7 3 -4 3 -10 0 -14z m6333 -24 c0 -23 -27 -36 -43 -20 -8 8 -7 11 6 11 10 0 17 8 17 21 0 11 5 17 10 14 6 -3 10 -15 10 -26z m-3640 -21 c0 -5 -4 -8 -10 -8 -5 0 -10 10 -10 23 0 18 2 19 10 7 5 -8 10 -18 10 -22z m-453 5 c-4 -3 -7 0 -7 7 0 7 3 10 7 7 3 -4 3 -10 0 -14z m-267 3 c0 -3 -4 -8 -10 -11 -5 -3 -10 -1 -10 4 0 6 5 11 10 11 6 0 10 -2 10 -4z m-1483 -418 c-3 -8 -6 -5 -6 6 -1 11 2 17 5 13 3 -3 4 -12 1 -19z m190 0 c-3 -8 -6 -5 -6 6 -1 11 2 17 5 13 3 -3 4 -12 1 -19z m3760 0 c-3 -8 -6 -5 -6 6 -1 11 2 17 5 13 3 -3 4 -12 1 -19z m-2700 -5 c-4 -3 -7 0 -7 7 0 7 3 10 7 7 3 -4 3 -10 0 -14z m3140 0 c-4 -3 -7 0 -7 7 0 7 3 10 7 7 3 -4 3 -10 0 -14z m620 0 c-4 -3 -7 0 -7 7 0 7 3 10 7 7 3 -4 3 -10 0 -14z m-6040 -20 c-4 -3 -10 -3 -14 0 -3 4 0 7 7 7 7 0 10 -3 7 -7z"/>
 </g>
<g id="layer103" fill="#c9161d" stroke="none">
 <path d="M0 4800 l0 -4800 4800 0 4800 0 0 4800 0 4800 -4800 0 -4800 0 0 -4800z m4647 1164 c-3 -3 -12 -4 -19 -1 -8 3 -5 6 6 6 11 1 17 -2 13 -5z m-1080 -10 c-3 -3 -12 -4 -19 -1 -8 3 -5 6 6 6 11 1 17 -2 13 -5z m4458 -4 c3 -5 -3 -10 -14 -10 -12 0 -21 5 -21 10 0 6 6 10 14 10 8 0 18 -4 21 -10z m-2345 -10 c0 -5 -6 -10 -14 -10 -8 0 -18 5 -21 10 -3 6 3 10 14 10 12 0 21 -4 21 -10z m1435 0 c-3 -5 -15 -10 -26 -10 -10 0 -19 5 -19 10 0 6 12 10 26 10 14 0 23 -4 19 -10z m402 4 c-3 -3 -12 -4 -19 -1 -8 3 -5 6 6 6 11 1 17 -2 13 -5z m-4017 -14 c0 -12 -42 -23 -67 -17 -15 3 -14 5 7 15 32 14 60 15 60 2z m-467 -11 c21 -5 35 -14 33 -18 -8 -12 -64 -1 -77 15 -14 17 -6 17 44 3z m-1815 -14 c-11 -12 -68 -23 -73 -15 -3 5 1 11 7 13 17 7 73 8 66 2z m1242 -4 c0 -4 -11 -6 -25 -3 -14 2 -25 6 -25 8 0 2 11 4 25 4 14 0 25 -4 25 -9z m2208 2 c-10 -2 -28 -2 -40 0 -13 2 -5 4 17 4 22 1 32 -1 23 -4z m895 0 c-7 -2 -19 -2 -25 0 -7 3 -2 5 12 5 14 0 19 -2 13 -5z m1832 -3 c3 -5 -1 -10 -10 -10 -9 0 -13 5 -10 10 3 6 8 10 10 10 2 0 7 -4 10 -10z m-6268 -17 c-4 -3 -10 -3 -14 0 -3 4 0 7 7 7 7 0 10 -3 7 -7z m1809 -3 c8 0 14 -4 14 -10 0 -11 -30 -13 -54 -4 -9 3 -13 10 -10 16 3 5 13 7 21 4 8 -3 21 -6 29 -6z m624 0 c0 -14 -24 -23 -47 -17 -15 3 -14 6 7 15 32 14 40 14 40 2z m4074 -10 c97 0 156 -4 156 -10 0 -11 -352 -15 -363 -4 -12 12 18 32 35 23 9 -5 87 -9 172 -9z m-5440 -2 c19 -8 23 -14 15 -24 -6 -8 -9 -81 -7 -208 2 -128 0 -195 -7 -193 -14 5 -19 375 -5 392 8 10 7 15 -2 21 -19 12 -37 13 -44 3 -3 -5 -202 -9 -472 -9 -307 0 -463 3 -456 10 6 6 185 11 474 13 256 1 468 3 472 5 4 1 18 -3 32 -10z m1997 2 c331 0 498 -3 494 -10 -8 -13 -991 -14 -999 -1 -11 17 -46 -1 -46 -23 0 -17 -2 -18 -10 -6 -12 18 25 54 47 45 8 -3 240 -5 514 -5z m1194 0 c106 0 146 -3 138 -11 -7 -7 -63 -9 -162 -7 -96 2 -151 -1 -151 -7 0 -5 0 -149 0 -318 0 -237 -2 -311 -12 -321 -119 -124 -292 -296 -299 -296 -5 0 -4 10 3 23 15 25 29 37 38 32 4 -2 26 16 50 40 28 28 40 48 35 57 -5 7 -5 10 0 6 13 -12 45 11 45 33 0 11 4 17 10 14 5 -3 33 18 62 48 l53 53 -5 320 c-3 175 -3 325 -1 332 2 8 12 11 25 8 11 -3 88 -6 171 -6z m257 -7 c17 -15 18 -39 18 -338 0 -242 3 -324 13 -335 6 -8 2 -6 -10 4 -12 10 -22 21 -21 25 1 3 -2 13 -6 22 -4 9 -6 151 -4 316 l3 300 -45 -5 c-48 -5 -48 12 0 21 14 2 27 5 29 6 3 0 13 -6 23 -16z m1532 -4 c-7 -13 -971 -12 -979 1 -6 9 925 20 967 11 10 -2 15 -7 12 -12z m-5979 1 c3 -6 -5 -10 -19 -10 -14 0 -28 5 -31 10 -3 6 5 10 19 10 14 0 28 -4 31 -10z m1580 0 c-4 -6 -73 -10 -176 -10 -106 0 -169 4 -169 10 0 6 65 10 176 10 114 0 173 -3 169 -10z m53 -513 l2 -517 63 -2 c76 -2 77 -1 101 3 10 2 21 -2 23 -9 4 -10 -17 -13 -96 -11 l-101 1 0 523 c0 490 -1 524 -17 529 -14 4 -14 4 2 3 20 -2 20 -11 23 -520z m597 513 c-4 -6 -80 -10 -195 -10 -115 0 -191 4 -195 10 -4 7 63 10 195 10 132 0 199 -3 195 -10z m5025 0 c-19 -12 -397 -12 -405 0 -3 5 86 9 207 9 143 1 208 -2 198 -9z m-7322 -477 l-3 -478 -5 470 c-5 451 -4 485 6 485 2 0 3 -215 2 -477z m1262 -539 c0 -674 -3 -1013 -10 -1009 -7 4 -10 350 -10 1006 0 696 -3 999 -11 999 -5 0 -7 5 -4 10 3 6 13 10 21 10 12 0 14 -138 14 -1016z m630 539 c0 -285 -4 -454 -10 -458 -9 -6 -20 921 -11 931 17 16 21 -74 21 -473z m445 468 c3 -5 1 -12 -5 -16 -14 -9 -14 -2041 1 -2050 6 -5 4 -12 -8 -21 -14 -10 -59 -13 -203 -11 l-185 2 180 2 c99 2 183 7 187 11 4 4 8 477 8 1050 0 630 4 1042 10 1042 5 0 11 -4 15 -9z m1247 -166 c-3 -152 -1 -175 13 -175 18 0 19 -10 3 -45 -25 -55 -33 -20 -36 156 -3 170 2 239 16 239 4 0 6 -79 4 -175z m1438 -876 c0 -672 -3 -1048 -10 -1044 -11 7 -14 2077 -3 2088 3 4 8 7 10 7 2 0 3 -473 3 -1051z m1060 1 c0 -1024 0 -1044 -19 -1062 -13 -11 -22 -14 -26 -7 -5 6 -72 9 -191 8 -102 -1 -187 1 -190 4 -3 3 88 6 202 7 114 0 209 2 211 4 2 1 3 474 3 1051 0 576 3 1046 5 1043 3 -3 5 -474 5 -1048z m815 1040 c-4 -6 -2 -17 4 -24 8 -9 10 -250 9 -827 l-3 -814 -94 0 c-55 0 -96 4 -98 10 -2 6 15 9 43 7 25 -2 65 -1 90 3 38 5 44 9 44 31 0 14 -7 27 -16 31 -15 5 -15 7 0 15 14 8 16 81 16 771 0 453 -4 768 -10 777 -6 9 -5 17 3 22 16 10 19 10 12 -2z m-615 -1044 c-1 -618 -5 -1027 -10 -1036 -5 -8 -10 -10 -10 -5 0 6 -1 476 -3 1047 -2 838 0 1034 11 1026 10 -9 12 -217 12 -1032z m1070 -5 c0 -563 -2 -1026 -4 -1028 -24 -24 -26 61 -26 1031 0 562 3 1026 7 1029 4 4 10 4 15 -1 4 -4 8 -468 8 -1031z m-4843 807 c-1 -40 -3 -10 -3 67 0 77 1 110 3 73 2 -37 2 -100 0 -140z m-35 -110 c-7 -7 -12 -8 -12 -2 0 14 12 26 19 19 2 -3 -1 -11 -7 -17z m-1292 -8 c0 -5 -4 -10 -10 -10 -5 0 -10 5 -10 10 0 6 5 10 10 10 6 0 10 -4 10 -10z m1240 6 c0 -3 -4 -8 -10 -11 -5 -3 -10 -1 -10 4 0 6 5 11 10 11 6 0 10 -2 10 -4z m185 -77 l90 -5 -86 -2 c-72 -2 -89 1 -103 17 -11 12 -14 25 -9 37 6 16 8 14 13 -11 l5 -30 90 -6z m-1550 1 c-3 -5 -16 -10 -28 -9 -20 1 -20 2 3 9 14 4 26 8 28 9 2 1 0 -3 -3 -9z m125 2 c0 -13 -12 -22 -22 -16 -10 6 -1 24 13 24 5 0 9 -4 9 -8z m1280 -19 c0 -25 -1 -26 -16 -11 -9 9 -13 21 -10 27 13 20 26 11 26 -16z m-1959 8 c-8 -5 -20 -7 -28 -4 -21 8 -15 13 15 13 20 0 23 -3 13 -9z m387 2 c-64 -2 -172 -2 -240 0 -68 1 -15 3 117 3 132 0 187 -2 123 -3z m225 -13 c-3 -11 -9 -20 -15 -20 -5 0 -4 9 2 20 6 11 12 20 14 20 2 0 2 -9 -1 -20z m1710 13 c3 -5 1 -17 -4 -28 -7 -18 -9 -18 -13 3 -1 4 -5 13 -9 20 -5 7 -3 12 7 12 8 0 17 -3 19 -7z m472 -3 c-3 -5 -12 -7 -20 -3 -13 4 -15 -67 -15 -560 0 -445 3 -565 13 -564 47 1 62 -13 20 -19 -43 -7 -43 -9 -43 581 0 309 3 565 7 568 10 11 45 8 38 -3z m142 3 c-20 -2 -52 -2 -70 0 -17 2 0 4 38 4 39 0 53 -2 32 -4z m113 -15 c-1 -20 -2 -21 -11 -6 -5 10 -16 15 -24 12 -8 -4 -15 -1 -15 5 0 6 11 11 25 11 19 0 25 -5 25 -22z m1994 15 c-64 -3 -73 -6 -78 -26 -3 -12 -6 -373 -6 -801 0 -429 -2 -777 -5 -774 -3 3 -8 1496 -5 1601 0 4 37 6 83 5 l82 -2 -71 -3z m96 -3 c0 -5 -2 -10 -4 -10 -3 0 -8 5 -11 10 -3 6 -1 10 4 10 6 0 11 -4 11 -10z m-2890 -24 c0 -2 -7 -7 -16 -10 -8 -3 -12 -2 -9 4 6 10 25 14 25 6z m-2303 -238 c-1 -46 -3 -11 -3 77 0 88 2 125 3 83 2 -42 2 -114 0 -160z m5190 -921 c-1 -210 -2 -38 -2 383 0 421 1 593 2 382 2 -210 2 -554 0 -765z m-1690 961 c-3 -7 -5 -2 -5 12 0 14 2 19 5 13 2 -7 2 -19 0 -25z m58 -7 c-3 -6 -11 -11 -17 -11 -6 0 -6 6 2 15 14 17 26 13 15 -4z m648 -100 c5 -7 18 -20 28 -29 10 -9 19 -21 19 -26 0 -6 -26 17 -57 50 -78 81 -97 108 -43 59 25 -22 49 -46 53 -54z m-676 72 c-4 -3 -10 -3 -14 0 -3 4 0 7 7 7 7 0 10 -3 7 -7z m700 -15 c-3 -8 -6 -5 -6 6 -1 11 2 17 5 13 3 -3 4 -12 1 -19z m47 -71 c7 -6 6 -7 -4 -4 -8 2 -16 12 -17 23 -2 13 -1 15 4 4 3 -8 11 -19 17 -23z m-4184 -7 c0 -5 -4 -10 -10 -10 -5 0 -10 5 -10 10 0 6 5 10 10 10 6 0 10 -4 10 -10z m-40 -29 c0 -5 -7 -14 -15 -21 -9 -7 -13 -20 -10 -28 5 -12 3 -13 -10 -2 -9 7 -12 16 -7 19 5 3 11 14 15 24 7 17 27 24 27 8z m3342 -13 c-6 -6 -15 -8 -19 -4 -4 4 -1 11 7 16 19 12 27 3 12 -12z m955 5 c-4 -3 -7 0 -7 7 0 7 3 10 7 7 3 -4 3 -10 0 -14z m17 -101 c37 -47 9 -26 -49 37 -51 56 -54 60 -15 26 25 -21 53 -50 64 -63z m-4274 -4 c0 6 5 12 11 12 8 0 8 -5 -1 -15 -18 -22 -28 -19 -46 18 l-16 32 26 -30 c14 -16 25 -24 26 -17z m4317 10 c-3 -8 -6 -5 -6 6 -1 11 2 17 5 13 3 -3 4 -12 1 -19z m-4897 -28 c0 -5 -2 -10 -4 -10 -3 0 -8 5 -11 10 -3 6 -1 10 4 10 6 0 11 -4 11 -10z m605 0 c-4 -6 16 -34 44 -63 45 -46 53 -51 71 -40 16 11 18 10 14 -2 -4 -8 -10 -15 -16 -15 -5 0 -6 -4 -3 -10 17 -28 -15 -3 -67 52 -59 64 -63 70 -51 81 10 11 15 8 8 -3z m1265 6 c0 -3 -4 -8 -10 -11 -5 -3 -10 -1 -10 4 0 6 5 11 10 11 6 0 10 -2 10 -4z m-1225 -16 c-3 -5 -12 -10 -18 -10 -7 0 -6 4 3 10 19 12 23 12 15 0z m-608 -32 c-3 -7 -5 -2 -5 12 0 14 2 19 5 13 2 -7 2 -19 0 -25z m1888 13 c3 -5 1 -12 -5 -16 -5 -3 -10 1 -10 9 0 18 6 21 15 7z m1832 -8 c-4 -3 -7 0 -7 7 0 7 3 10 7 7 3 -4 3 -10 0 -14z m1131 -32 c-7 -9 -14 -18 -15 -20 -2 -2 -3 5 -3 16 0 11 7 20 15 20 12 0 12 -3 3 -16z m-1091 -23 c-3 -7 -5 -2 -5 12 0 14 2 19 5 13 2 -7 2 -19 0 -25z m589 -45 c56 -61 60 -68 44 -78 -5 -3 -10 1 -10 9 0 8 -20 36 -44 62 -42 44 -46 46 -62 30 -9 -9 -19 -14 -22 -11 -5 4 27 43 37 44 2 1 28 -25 57 -56z m-4305 23 c6 -13 20 -27 30 -29 10 -3 23 -17 29 -31 5 -14 14 -26 20 -26 6 0 9 -4 6 -9 -6 -10 -86 66 -86 81 0 5 -4 7 -8 4 -4 -2 -13 4 -20 15 -10 16 -9 19 3 19 9 0 20 -11 26 -24z m666 -31 c0 -8 -4 -12 -9 -9 -5 3 -6 10 -3 15 9 13 12 11 12 -6z m3050 -677 c-1 -128 -2 -26 -2 227 0 253 1 358 2 233 2 -125 2 -332 0 -460z m471 655 c-15 -16 -28 -41 -31 -58 l-4 -30 -2 33 c-1 32 30 80 53 81 6 1 -2 -11 -16 -26z m-3478 -8 c-12 -14 -7 -23 38 -67 28 -27 56 -47 61 -43 7 3 8 0 5 -10 -4 -10 -1 -14 7 -12 8 2 10 2 6 -1 -4 -2 18 -30 50 -63 45 -47 59 -56 66 -44 4 8 13 15 20 15 6 0 2 -10 -11 -22 l-22 -22 -130 132 c-71 72 -130 133 -130 136 0 3 6 3 14 0 7 -3 16 3 20 12 4 9 9 14 13 11 3 -4 0 -14 -7 -22z m37 -22 c-4 -3 -7 0 -7 7 0 7 3 10 7 7 3 -4 3 -10 0 -14z m3513 -28 c0 -5 -5 -3 -10 5 -5 8 -10 20 -10 25 0 6 5 3 10 -5 5 -8 10 -19 10 -25z m-57 -20 c-7 -21 -13 -19 -13 6 0 11 4 18 10 14 5 -3 7 -12 3 -20z m-4088 5 c3 -5 4 -10 1 -10 -3 0 -8 5 -11 10 -3 6 -4 10 -1 10 3 0 8 -4 11 -10z m4234 -4 c9 -10 8 -16 -4 -26 -13 -11 -15 -8 -15 14 0 30 3 32 19 12z m-3547 -18 c-7 -7 -12 -8 -12 -2 0 14 12 26 19 19 2 -3 -1 -11 -7 -17z m-714 -8 c-7 -11 -16 -20 -20 -20 -11 0 -10 9 5 25 18 21 29 18 15 -5z m110 -40 c7 0 12 -6 12 -12 0 -7 13 -20 29 -30 26 -14 61 -58 47 -58 -3 0 -22 16 -42 35 -20 19 -43 41 -52 48 -10 7 -26 23 -37 37 l-20 25 26 -22 c14 -13 31 -23 37 -23z m3962 -399 c1 -228 -2 -416 -5 -419 -3 -3 -5 185 -5 418 0 233 2 421 5 418 3 -2 5 -190 5 -417z m200 8 c0 -252 -4 -390 -10 -394 -6 -4 -8 -11 -5 -16 4 -5 1 -9 -4 -9 -8 0 -11 130 -11 416 0 369 2 415 15 404 13 -11 15 -68 15 -401z m-3485 381 c-3 -5 -10 -10 -16 -10 -5 0 -9 5 -9 10 0 6 7 10 16 10 8 0 12 -4 9 -10z m-636 -113 c-11 -10 -23 -16 -26 -13 -9 9 15 33 32 33 12 0 10 -5 -6 -20z m210 -138 c73 -72 130 -133 127 -137 -4 -3 -13 4 -22 16 -8 12 -19 20 -24 17 -5 -3 -16 7 -24 22 -18 34 -96 112 -96 95 0 -7 -5 -12 -11 -12 -6 0 -8 7 -5 16 5 12 -9 32 -45 65 -28 27 -47 49 -42 49 5 0 69 -59 142 -131z m533 117 c6 4 9 1 6 -6 -2 -7 7 -24 21 -39 l24 -26 -2 -305 c-1 -167 -5 -308 -7 -312 -3 -4 -11 -8 -17 -7 -7 0 -7 2 -2 5 6 2 10 115 9 312 -1 289 -2 310 -20 330 -36 39 -43 50 -36 57 4 3 8 1 10 -4 2 -6 8 -8 14 -5z m88 -6 c0 -5 -4 -10 -10 -10 -5 0 -10 5 -10 10 0 6 5 10 10 10 6 0 10 -4 10 -10z m778 -79 c2 -13 -1 -28 -7 -34 -8 -8 -11 -5 -11 10 0 24 -37 34 -108 29 -51 -4 -79 -24 -45 -32 14 -4 20 -11 16 -20 -4 -11 -9 -12 -19 -3 -12 10 -14 -26 -14 -230 0 -237 0 -241 21 -241 11 0 17 -4 14 -10 -3 -5 -15 -10 -26 -10 -18 0 -19 9 -19 278 0 153 3 282 7 286 4 4 48 5 98 4 86 -3 90 -4 93 -27z m-1573 -1 c3 -5 4 -10 1 -10 -3 0 -8 5 -11 10 -3 6 -4 10 -1 10 3 0 8 -4 11 -10z m1520 -39 c3 -5 1 -12 -5 -16 -5 -3 -10 1 -10 9 0 18 6 21 15 7z m-1410 -11 c3 -5 4 -10 1 -10 -3 0 -8 5 -11 10 -3 6 -4 10 -1 10 3 0 8 -4 11 -10z m2405 -34 c0 -18 -3 -48 -6 -65 l-6 -31 -124 0 c-75 0 -125 4 -129 10 -5 8 -11 8 -19 1 -12 -10 -26 -5 -26 9 0 4 47 5 105 2 l105 -5 0 37 c0 20 5 36 11 36 5 0 9 -8 8 -17 -4 -46 1 -54 29 -51 25 3 27 7 30 56 3 57 22 73 22 18z m-940 -236 c0 -235 -3 -285 -19 -276 -3 2 -5 124 -3 270 2 169 6 265 12 261 6 -4 10 -105 10 -255z m525 250 c3 -5 1 -10 -4 -10 -6 0 -11 5 -11 10 0 6 2 10 4 10 3 0 8 -4 11 -10z m92 -32 c-3 -8 -6 -5 -6 6 -1 11 2 17 5 13 3 -3 4 -12 1 -19z m1026 15 c-7 -2 -21 -2 -30 0 -10 3 -4 5 12 5 17 0 24 -2 18 -5z m-3543 -18 c0 -2 -9 -9 -20 -15 -16 -9 -20 -8 -20 5 0 8 9 15 20 15 11 0 20 -2 20 -5z m480 -21 c0 -8 -6 -14 -13 -14 -19 0 -27 10 -20 25 6 17 33 8 33 -11z m2787 4 c-3 -8 -6 -5 -6 6 -1 11 2 17 5 13 3 -3 4 -12 1 -19z m343 2 c0 -12 -28 -25 -36 -17 -9 9 6 27 22 27 8 0 14 -5 14 -10z m-151 -40 c84 0 121 -4 127 -12 5 -7 7 -89 4 -183 -3 -102 -8 -163 -13 -153 -5 9 -7 88 -5 175 l3 158 -157 -3 c-154 -3 -158 -3 -158 17 0 19 2 20 21 9 18 -11 23 -10 32 4 10 15 13 15 20 3 6 -12 33 -15 126 -15z m-3374 -10 c-3 -5 -15 -10 -25 -10 -10 0 -22 5 -25 10 -4 6 7 10 25 10 18 0 29 -4 25 -10z m340 0 c-4 -6 -67 -10 -155 -10 -88 0 -151 4 -155 10 -4 7 50 10 155 10 105 0 159 -3 155 -10z m170 0 c-3 -5 -33 -10 -65 -10 -32 0 -62 5 -65 10 -4 6 20 10 65 10 45 0 69 -4 65 -10z m1852 -7 c-4 -3 -7 0 -7 7 0 7 3 10 7 7 3 -4 3 -10 0 -14z m-2439 -10 c-1 -10 0 -107 0 -215 l2 -198 518 -2 517 -3 -489 -2 c-345 -2 -493 -7 -503 -14 -10 -9 -18 -7 -33 6 -19 17 -20 31 -20 210 0 139 -3 194 -12 203 -10 10 -10 15 2 22 20 13 20 13 18 -7z m2510 -170 l-2 -178 -6 170 c-3 94 -4 173 -2 178 10 23 12 -11 10 -170z m-668 -170 c0 -5 -4 -14 -9 -21 -7 -11 -9 -11 -14 1 -3 8 -3 18 0 21 9 8 23 7 23 -1z m650 3 c0 -2 -7 -9 -15 -16 -12 -10 -15 -10 -15 4 0 9 7 16 15 16 8 0 15 -2 15 -4z m1240 -43 c0 -12 -4 -25 -10 -28 -6 -4 -10 11 -10 37 0 31 3 39 10 28 5 -8 10 -25 10 -37z m-3773 20 c-4 -3 -7 0 -7 7 0 7 3 10 7 7 3 -4 3 -10 0 -14z m1203 -8 c0 -3 -9 -5 -20 -5 -11 0 -20 7 -20 15 0 13 4 14 20 5 11 -6 20 -13 20 -15z m2447 3 c-3 -8 -6 -5 -6 6 -1 11 2 17 5 13 3 -3 4 -12 1 -19z m50 5 c-4 -3 -7 0 -7 7 0 7 3 10 7 7 3 -4 3 -10 0 -14z m573 3 c0 -8 -4 -18 -10 -21 -5 -3 -10 3 -10 14 0 12 5 21 10 21 6 0 10 -6 10 -14z m610 -2 c0 -8 -5 -12 -10 -9 -6 4 -8 11 -5 16 9 14 15 11 15 -7z m-3580 -35 c0 -12 -5 -19 -11 -17 -6 2 -10 7 -10 11 1 4 1 14 1 23 0 8 5 12 10 9 6 -3 10 -15 10 -26z m443 11 c3 -11 1 -23 -4 -26 -5 -3 -9 6 -9 20 0 31 6 34 13 6z m722 10 c3 -5 2 -10 -4 -10 -5 0 -13 5 -16 10 -3 6 -2 10 4 10 5 0 13 -4 16 -10z m1332 -22 c-3 -7 -5 -2 -5 12 0 14 2 19 5 13 2 -7 2 -19 0 -25z m-1970 15 c-4 -3 -10 -3 -14 0 -3 4 0 7 7 7 7 0 10 -3 7 -7z m1793 -9 c0 -8 -5 -12 -10 -9 -6 4 -8 11 -5 16 9 14 15 11 15 -7z m1890 -10 c0 -8 -4 -14 -10 -14 -5 0 -10 9 -10 21 0 11 5 17 10 14 6 -3 10 -13 10 -21z m-2963 -1 c-4 -3 -7 0 -7 7 0 7 3 10 7 7 3 -4 3 -10 0 -14z m3133 1 c0 -8 -5 -12 -10 -9 -6 4 -8 11 -5 16 9 14 15 11 15 -7z m-800 2 c0 -3 -5 -8 -12 -12 -7 -4 -8 -3 -4 4 7 12 16 16 16 8z m-3695 -26 c-3 -5 -11 -10 -17 -10 -7 0 -22 -9 -34 -21 -14 -13 -24 -17 -29 -10 -3 6 1 11 9 11 9 0 16 4 16 9 0 7 31 23 58 30 2 1 0 -3 -3 -9z m438 3 c-56 -2 -151 -2 -210 0 -59 1 -13 3 102 3 116 0 164 -2 108 -3z m340 0 c-7 -2 -19 -2 -25 0 -7 3 -2 5 12 5 14 0 19 -2 13 -5z m494 0 c-4 -3 -10 -3 -14 0 -3 4 0 7 7 7 7 0 10 -3 7 -7z m48 -2 c10 -17 -12 -21 -25 -6 -10 12 -10 15 3 15 9 0 18 -4 22 -9z m571 2 c-341 -2 -493 -7 -503 -14 -10 -9 -13 -8 -13 4 0 15 49 16 503 14 l502 -2 -489 -2z m524 3 c0 -3 -4 -8 -10 -11 -5 -3 -10 -1 -10 4 0 6 5 11 10 11 6 0 10 -2 10 -4z m1783 -3 c-56 -2 -151 -2 -210 0 -59 1 -13 3 102 3 116 0 164 -2 108 -3z m952 -3 c3 -5 1 -10 -4 -10 -6 0 -11 5 -11 10 0 6 2 10 4 10 3 0 8 -4 11 -10z m73 3 c-10 -2 -26 -2 -35 0 -10 3 -2 5 17 5 19 0 27 -2 18 -5z m962 0 c0 -7 -358 -7 -780 0 -91 1 48 4 308 5 259 1 472 -1 472 -5z m-5600 -37 c-14 -14 -22 -2 -14 18 5 14 9 15 15 4 4 -7 4 -17 -1 -22z m2057 27 c-4 -3 -10 -3 -14 0 -3 4 0 7 7 7 7 0 10 -3 7 -7z m403 -3 c0 -5 -11 -10 -25 -10 -14 0 -25 5 -25 10 0 6 11 10 25 10 14 0 25 -4 25 -10z m560 -11 c0 -14 -5 -19 -17 -17 -24 4 -26 38 -2 38 13 0 19 -7 19 -21z m47 14 c-4 -3 -10 -3 -14 0 -3 4 0 7 7 7 7 0 10 -3 7 -7z m-2310 -20 c-4 -3 -7 0 -7 7 0 7 3 10 7 7 3 -4 3 -10 0 -14z m2370 0 c-4 -3 -7 0 -7 7 0 7 3 10 7 7 3 -4 3 -10 0 -14z m-2980 1 c-3 -3 -12 -4 -19 -1 -8 3 -5 6 6 6 11 1 17 -2 13 -5z m3503 -16 c0 -6 -7 -7 -16 -4 -9 3 -20 6 -25 6 -5 0 -9 4 -9 9 0 4 11 6 25 3 14 -2 25 -9 25 -14z m-3695 2 c-3 -5 -10 -10 -16 -10 -5 0 -9 5 -9 10 0 6 7 10 16 10 8 0 12 -4 9 -10z m3362 -7 c-4 -3 -7 0 -7 7 0 7 3 10 7 7 3 -4 3 -10 0 -14z m63 7 c0 -5 -2 -10 -4 -10 -3 0 -8 5 -11 10 -3 6 -1 10 4 10 6 0 11 -4 11 -10z m537 3 c-4 -3 -10 -3 -14 0 -3 4 0 7 7 7 7 0 10 -3 7 -7z m443 3 c0 -3 -4 -8 -10 -11 -5 -3 -10 -1 -10 4 0 6 5 11 10 11 6 0 10 -2 10 -4z m-4910 -20 c0 -11 -19 -15 -25 -6 -3 5 1 10 9 10 9 0 16 -2 16 -4z m2577 -3 c-4 -3 -10 -3 -14 0 -3 4 0 7 7 7 7 0 10 -3 7 -7z m1050 0 c-4 -3 -10 -3 -14 0 -3 4 0 7 7 7 7 0 10 -3 7 -7z m1520 1 c-3 -3 -12 -4 -19 -1 -8 3 -5 6 6 6 11 1 17 -2 13 -5z"/>
 </g>
<g id="layer104" fill="#ad262f" stroke="none">
 <path d="M2143 5859 c-6 -6 -213 -8 -511 -7 l-502 3 0 -521 0 -522 21 -5 c15 -4 20 -11 15 -22 -3 -9 -2 -13 4 -10 6 3 10 2 10 -3 0 -5 9 -12 20 -15 11 -3 23 -13 27 -24 9 -25 124 -143 140 -143 7 0 13 -7 13 -15 0 -8 6 -15 13 -15 15 0 67 -51 67 -65 0 -5 66 -74 146 -153 92 -90 143 -147 137 -153 -6 -6 -131 -9 -311 -7 -195 2 -303 -1 -304 -7 -2 -5 -2 -101 0 -212 l3 -203 519 -2 c286 -2 523 -2 528 0 4 1 7 142 6 312 -1 287 -2 312 -19 324 -11 8 -15 18 -10 26 5 8 4 11 -2 7 -5 -3 -16 3 -23 14 -8 10 -19 19 -25 19 -20 0 -128 117 -120 131 5 7 4 10 -2 6 -12 -8 -137 109 -146 136 -4 9 -15 20 -24 24 -24 8 -133 121 -133 137 0 8 -8 13 -17 12 -9 0 -22 9 -29 22 -6 13 -23 36 -38 51 l-26 27 0 207 0 207 306 2 306 3 -1 198 c-2 133 2 203 9 212 17 21 -28 43 -47 24z"/>
 <path d="M2774 5859 c-3 -5 -90 -9 -194 -9 l-190 0 -2 -1022 c-2 -563 0 -1033 4 -1045 7 -23 9 -23 218 -23 l210 0 2 313 3 312 95 0 95 0 0 -313 0 -312 207 0 c114 0 209 4 212 9 3 5 6 475 6 1045 l0 1037 -212 2 -213 2 3 -523 3 -523 -101 2 -100 1 0 523 c0 514 0 523 -20 528 -11 3 -23 1 -26 -4z"/>
 <path d="M3657 5862 c-16 -3 -17 -20 -15 -220 l3 -217 155 -5 155 -5 3 -575 c2 -316 0 -594 -3 -617 l-6 -43 -124 0 c-78 0 -126 4 -131 11 -4 7 -10 7 -16 1 -6 -6 -17 -8 -24 -5 -12 4 -14 -31 -14 -211 0 -137 4 -216 10 -216 13 0 1017 0 1033 0 9 0 12 49 12 213 l0 212 -157 -3 -157 -3 2 618 2 618 153 5 153 5 2 215 2 215 -499 -3 c-274 -1 -503 1 -510 6 -6 5 -19 7 -29 4z"/>
 <path d="M5210 5845 c0 -5 0 -149 0 -319 l1 -309 -118 -120 c-65 -66 -133 -135 -151 -153 -18 -19 -37 -34 -42 -34 -6 0 -10 -213 -10 -580 l0 -580 215 0 215 0 2 433 c1 237 1 454 -1 480 -2 42 1 51 28 76 17 16 31 33 31 38 0 6 9 18 21 29 21 19 21 19 60 -24 21 -24 37 -49 35 -55 -1 -7 -1 -8 2 -4 2 4 10 2 18 -4 12 -10 14 -87 14 -488 l-1 -476 207 -3 c159 -2 209 1 215 10 5 7 9 264 9 571 l0 559 -160 160 c-88 88 -159 163 -158 166 1 4 -2 14 -6 23 -4 9 -6 150 -4 315 l3 299 -212 0 c-135 0 -213 -4 -213 -10z"/>
 <path d="M6152 4810 l3 -1045 208 -3 207 -2 9 22 c5 13 7 26 5 29 -2 4 -4 366 -4 805 l-1 799 96 3 95 3 0 -831 c0 -784 1 -830 18 -830 126 -3 399 3 404 8 4 4 8 475 8 1045 l0 1037 -525 3 -525 2 2 -1045z"/>
 <path d="M7394 5851 c-2 -2 1 -10 6 -17 7 -8 10 -349 8 -1043 -2 -682 0 -1031 7 -1031 42 -2 1030 1 1032 4 1 1 4 472 5 1047 l3 1044 -214 -2 c-117 -1 -216 -4 -218 -7 -3 -3 -1 -12 6 -19 8 -11 10 -227 9 -828 l-3 -814 -95 0 -95 0 -5 833 -5 833 -218 2 c-120 1 -221 0 -223 -2z"/>
 <path d="M5024 5058 c-4 -7 -3 -8 4 -4 12 7 16 16 8 16 -3 0 -8 -5 -12 -12z"/>
 </g>
<g id="layer105" fill="#c42d35" stroke="none">
 <path d="M1130 5334 l0 -522 21 -5 c14 -4 20 -11 16 -21 -4 -9 -1 -13 6 -10 10 3 363 -344 413 -407 7 -8 42 -43 79 -79 77 -75 93 -98 72 -106 -7 -2 -147 -4 -310 -2 l-297 3 0 -212 0 -213 528 0 527 0 -1 309 -1 309 -102 98 c-62 59 -100 103 -96 111 2 8 0 11 -5 8 -15 -9 -313 292 -304 306 5 8 3 9 -5 4 -14 -8 -71 41 -71 62 0 7 -7 13 -15 13 -13 0 -15 31 -15 220 l0 220 305 2 306 3 2 215 2 215 -527 0 -528 0 0 -521z"/>
 <path d="M2597 5852 l-207 -2 2 -1043 3 -1042 212 -3 213 -2 2 312 3 313 95 0 95 0 0 -313 0 -312 210 2 210 3 3 1043 2 1042 -199 0 c-110 0 -205 2 -213 5 -11 4 -13 -86 -10 -520 l3 -525 -101 0 -100 0 0 519 c0 286 -3 521 -7 523 -5 2 -101 2 -216 0z"/>
 <path d="M3644 5845 c-3 -6 -3 -103 -2 -215 l3 -205 155 -5 155 -5 3 -575 c2 -316 0 -594 -3 -618 l-6 -43 -155 3 -154 3 0 -212 0 -213 528 0 527 0 0 213 0 212 -157 -3 -158 -3 0 620 0 620 155 3 156 3 2 215 2 215 -524 0 c-349 0 -525 -3 -527 -10z"/>
 <path d="M5210 5535 l0 -320 -160 -162 -160 -161 0 -571 0 -571 215 0 215 0 0 484 0 485 50 53 50 53 55 -60 55 -60 -1 -475 0 -475 208 -3 208 -2 -3 552 c-2 367 1 555 8 562 5 5 10 13 10 18 0 6 -57 64 -102 104 -7 6 -51 50 -98 97 -47 48 -95 97 -108 109 l-23 23 3 320 3 320 -212 0 -213 0 0 -320z"/>
 <path d="M6152 4814 l3 -1049 210 0 210 0 2 825 3 825 95 3 95 3 0 -831 0 -830 213 2 212 3 3 1043 2 1042 -509 0 c-280 0 -517 3 -525 6 -15 6 -16 -88 -14 -1042z"/>
 <path d="M7405 4807 l0 -1047 523 0 522 0 0 1034 c0 569 2 1040 5 1048 4 11 -34 13 -207 13 l-213 0 0 -835 0 -835 -89 -3 c-49 -2 -93 1 -98 6 -4 4 -9 381 -11 836 l-2 827 -215 2 -215 2 0 -1048z"/>
 <path d="M5024 5058 c-4 -7 -3 -8 4 -4 12 7 16 16 8 16 -3 0 -8 -5 -12 -12z"/>
 </g>
<g id="layer106" fill="#b93a46" stroke="none">
 <path d="M1134 5851 c-2 -2 -4 -232 -4 -511 l0 -507 220 -218 c121 -121 222 -226 226 -234 3 -9 27 -34 52 -56 63 -53 124 -124 116 -136 -3 -6 -127 -9 -307 -9 l-302 1 -3 -210 -2 -211 527 0 528 0 -1 308 -1 307 -309 309 -309 308 -2 214 -1 214 309 2 310 3 0 213 0 212 -521 3 c-287 1 -524 0 -526 -2z"/>
 <path d="M2597 5852 l-207 -2 2 -1043 3 -1042 212 -3 213 -2 2 312 3 313 95 0 95 0 0 -313 0 -312 210 2 210 3 3 1043 2 1042 -210 0 -210 0 0 -520 0 -520 -100 0 -100 0 0 519 c0 286 -3 521 -7 523 -5 2 -101 2 -216 0z"/>
 <path d="M3644 5845 c-3 -6 -3 -103 -2 -215 l3 -205 155 -5 155 -5 3 -575 c2 -316 0 -594 -3 -618 l-6 -43 -152 2 -152 1 -3 -211 -2 -211 527 0 528 0 -2 211 -2 211 -155 -1 -156 -2 0 620 0 620 156 3 155 3 0 213 0 212 -522 3 c-350 1 -523 -1 -525 -8z"/>
 <path d="M5210 5539 l0 -324 -160 -162 -160 -161 2 -569 3 -568 210 0 210 0 3 482 2 482 50 53 50 53 55 -60 55 -60 -1 -475 0 -475 206 0 205 0 3 578 c2 542 1 578 -15 583 -10 3 -18 9 -18 13 0 8 -1 10 -159 165 l-121 118 0 319 0 319 -194 0 c-107 0 -201 3 -210 6 -14 6 -16 -27 -16 -317z"/>
 <path d="M6152 4814 l3 -1049 210 0 210 0 2 825 3 825 95 3 95 3 2 -828 3 -828 210 0 210 0 3 1043 2 1042 -509 0 c-280 0 -517 3 -525 6 -15 6 -16 -88 -14 -1042z"/>
 <path d="M7410 5850 c0 -3 -1 -474 -2 -1048 l-3 -1042 523 0 522 0 0 1045 0 1045 -194 0 c-107 0 -200 2 -208 5 -11 4 -13 -139 -13 -832 l0 -838 -88 -3 c-109 -3 -118 3 -115 72 1 28 1 400 0 826 l-2 775 -210 0 c-115 0 -210 -2 -210 -5z"/>
 </g>
<g id="layer107" fill="#c44540" stroke="none">
 <path d="M1134 5851 c-2 -2 -4 -232 -4 -510 l0 -506 315 -318 c173 -175 315 -323 315 -328 0 -6 -117 -9 -312 -9 l-313 1 -3 -210 -2 -211 527 0 528 0 -1 307 -1 308 -309 309 -309 308 -3 214 -3 214 23 0 c13 1 153 2 311 3 l288 2 0 213 0 212 -521 3 c-287 1 -524 0 -526 -2z"/>
 <path d="M2597 5852 l-207 -2 2 -1043 3 -1042 212 -3 213 -2 2 312 3 313 95 0 95 0 0 -313 0 -312 210 2 210 3 3 1043 2 1042 -210 0 -210 0 0 -520 0 -520 -100 0 -100 0 0 519 c0 286 -3 521 -7 523 -5 2 -101 2 -216 0z"/>
 <path d="M4165 5850 l-520 -5 0 -210 0 -210 148 -2 c81 -1 152 -5 157 -8 10 -6 14 -1152 4 -1202 l-6 -32 -152 -3 -151 -3 0 -205 0 -205 525 -3 525 -2 -2 211 -2 211 -155 -1 -156 -2 0 623 0 623 156 0 155 0 0 214 c0 117 -1 214 -3 215 -2 0 -237 -1 -523 -4z"/>
 <path d="M5210 5539 l0 -324 -160 -164 -160 -164 2 -566 3 -566 210 0 210 0 3 482 2 482 50 53 49 53 56 -58 56 -58 -1 -477 -1 -477 205 0 c113 0 206 3 206 8 0 4 0 261 0 573 l0 565 -155 156 -155 157 0 318 0 318 -194 0 c-107 0 -201 3 -210 6 -14 6 -16 -26 -16 -317z"/>
 <path d="M6152 4814 l3 -1049 210 0 210 0 2 824 c2 453 5 826 8 829 9 10 185 7 185 -3 0 -5 1 -379 3 -830 l2 -820 210 0 210 0 3 1043 2 1042 -509 0 c-280 0 -517 3 -525 6 -15 6 -16 -88 -14 -1042z"/>
 <path d="M7410 5850 c0 -3 -1 -474 -2 -1048 l-3 -1042 523 0 522 0 0 1045 0 1045 -194 0 c-107 0 -200 2 -208 5 -11 4 -13 -139 -13 -832 l0 -838 -104 0 -103 0 1 835 2 835 -210 0 c-116 0 -211 -2 -211 -5z"/>
 </g>
<g id="layer108" fill="#c83c47" stroke="none">
 <path d="M1655 5850 l-520 -5 -2 -505 -3 -505 315 -318 c173 -175 315 -323 315 -328 0 -6 -117 -9 -312 -9 l-313 1 0 -208 0 -208 523 0 522 0 2 305 1 304 -309 309 -309 309 -3 214 c-3 201 -2 214 15 215 10 0 150 1 311 2 l293 2 0 214 c0 117 -1 214 -3 215 -2 0 -237 -1 -523 -4z"/>
 <path d="M4165 5850 l-520 -5 -3 -203 -2 -202 27 -11 c15 -5 82 -9 149 -8 67 0 127 -2 133 -5 11 -7 16 -1148 5 -1203 l-6 -32 -152 -3 -151 -3 0 -205 0 -205 525 -3 525 -2 -2 211 -2 211 -155 -1 -156 -2 0 623 0 623 156 0 155 0 0 214 c0 117 -1 214 -3 215 -2 0 -237 -1 -523 -4z"/>
 <path d="M5210 5539 l0 -324 -160 -164 -160 -164 2 -566 3 -566 193 -3 c121 -1 200 1 212 8 19 10 20 23 20 485 l0 474 49 53 50 53 56 -58 56 -58 -1 -477 -1 -477 205 0 c113 0 206 3 206 8 0 4 0 261 0 573 l0 565 -155 156 -155 157 0 318 0 318 -194 0 c-107 0 -201 3 -210 6 -14 6 -16 -26 -16 -317z"/>
 <path d="M6152 4814 l3 -1049 210 0 210 0 2 824 c2 453 5 826 8 829 2 3 45 5 95 6 66 1 91 -2 95 -12 3 -8 5 -381 4 -830 l0 -817 208 0 208 0 3 1043 2 1042 -509 0 c-280 0 -517 3 -525 6 -15 6 -16 -88 -14 -1042z"/>
 <path d="M7613 5853 l-203 -3 -2 -1008 c-1 -554 -2 -1024 -4 -1044 l-2 -38 524 0 524 0 0 1045 0 1045 -194 0 c-107 0 -200 2 -208 5 -11 4 -13 -139 -13 -832 l0 -838 -104 0 -103 0 1 838 c1 460 -2 836 -6 835 -4 -2 -99 -4 -210 -5z"/>
 <path d="M2392 4808 l3 -1043 212 -3 213 -2 2 312 3 313 95 0 95 0 5 -310 5 -310 205 0 205 0 3 1043 2 1042 -210 0 -210 0 0 -520 0 -520 -100 0 -100 0 -2 518 -3 517 -213 3 -212 2 2 -1042z"/>
 </g>
<g id="layer109" fill="#bc4a4e" stroke="none">
 <path d="M1655 5850 l-520 -5 -3 -504 -2 -505 222 -225 c123 -124 265 -267 316 -319 50 -52 92 -98 92 -103 0 -6 -125 -9 -312 -9 l-313 1 0 -208 0 -208 523 0 522 0 2 305 1 305 -312 311 -311 311 0 217 0 217 308 -1 307 -1 5 208 c3 114 3 210 0 213 -3 3 -239 3 -525 0z"/>
 <path d="M2392 4808 l3 -1043 210 0 210 0 5 310 5 310 95 0 95 0 5 -310 5 -310 205 0 205 0 3 1043 2 1042 -210 0 -210 0 0 -520 0 -520 -100 0 -100 0 -2 518 -3 517 -213 3 -212 2 2 -1042z"/>
 <path d="M3647 5843 c-12 -11 -8 -401 4 -408 5 -4 71 -6 146 -6 86 1 140 -2 148 -9 11 -9 14 -120 15 -593 0 -320 -2 -597 -6 -614 l-6 -32 -152 -3 -151 -3 0 -205 0 -205 514 -3 c283 -1 518 1 522 5 5 5 9 100 10 211 l1 204 -156 -1 -156 -2 0 625 0 625 153 3 152 3 0 205 0 205 -516 3 c-283 1 -519 -1 -522 -5z"/>
 <path d="M5217 5843 c-4 -3 -7 -146 -7 -317 l0 -311 -142 -145 c-79 -80 -151 -156 -160 -170 -17 -23 -18 -66 -18 -571 0 -452 2 -549 14 -558 9 -8 74 -11 212 -9 l199 3 3 477 2 477 50 53 49 53 55 -58 56 -57 0 -475 0 -475 205 0 205 0 0 571 0 570 -155 156 -155 157 0 318 0 318 -203 0 c-112 0 -207 -3 -210 -7z"/>
 <path d="M6155 5838 c-3 -7 -4 -476 -3 -1043 l3 -1030 210 0 210 0 2 823 c2 453 5 827 8 833 4 5 46 9 95 9 72 0 89 -3 94 -16 4 -9 6 -384 6 -833 l-1 -816 208 0 208 0 3 1043 2 1042 -520 0 c-407 0 -522 -3 -525 -12z"/>
 <path d="M7408 4823 c-2 -566 -1 -1036 1 -1045 3 -17 36 -18 522 -18 l519 0 0 1045 0 1045 -205 0 -205 0 -2 -832 -3 -833 -104 0 -103 0 -2 830 -1 830 -207 3 -208 2 -2 -1027z"/>
 </g>
<g id="layer110" fill="#f5dde1" stroke="none">
 <path d="M1140 5338 l1 -513 309 -313 c171 -173 310 -318 310 -323 0 -5 -131 -9 -310 -9 l-310 0 2 -207 3 -208 518 -3 517 -2 0 307 0 308 -310 310 -310 310 0 217 0 218 310 0 310 0 0 210 0 210 -520 0 -520 0 0 -512z"/>
 <path d="M2392 4808 l3 -1043 205 0 205 0 3 313 2 313 103 -3 102 -3 5 -310 5 -310 205 0 205 0 3 1043 2 1042 -210 0 -210 0 0 -520 0 -520 -105 0 -105 0 0 520 0 520 -210 0 -210 0 2 -1042z"/>
 <path d="M3650 5640 l0 -210 155 0 155 0 -2 -622 -3 -623 -152 -3 -153 -3 0 -209 0 -210 518 2 517 3 3 208 2 207 -155 0 -155 0 0 625 0 624 153 3 152 3 0 205 0 205 -517 3 -518 2 0 -210z"/>
 <path d="M5217 5843 c-4 -3 -7 -149 -7 -322 l0 -316 -155 -155 -155 -155 2 -565 3 -565 205 0 205 0 3 477 2 477 49 53 50 53 55 -55 56 -54 0 -478 0 -478 205 0 205 0 0 571 0 570 -155 156 -155 157 0 318 0 318 -203 0 c-112 0 -207 -3 -210 -7z"/>
 <path d="M6155 5838 c-3 -7 -4 -476 -3 -1043 l3 -1030 210 0 210 0 0 833 0 832 102 0 103 0 2 -832 3 -833 205 0 205 0 3 1043 2 1042 -520 0 c-407 0 -522 -3 -525 -12z"/>
 <path d="M7410 4805 l0 -1045 520 0 520 0 0 1045 0 1045 -205 0 -205 0 -2 -832 -3 -833 -104 0 -103 0 -2 830 -1 830 -207 3 -208 2 0 -1045z"/>
 </g>
<g id="layer111" fill="#ffe3df" stroke="none">
 <path d="M1140 5338 l0 -512 209 -211 c115 -115 251 -253 303 -306 51 -53 99 -98 107 -101 8 -2 11 -9 7 -16 -5 -9 -88 -12 -317 -12 l-309 0 2 -207 3 -208 518 -3 517 -2 0 307 0 308 -310 310 -309 310 -3 220 -3 220 312 -3 311 -3 1 210 2 210 -521 1 -520 1 0 -513z"/>
 <path d="M2392 4808 l3 -1043 205 0 205 0 0 313 0 312 110 0 110 0 0 -312 0 -313 205 0 205 0 3 1043 2 1042 -210 0 -210 0 0 -520 0 -520 -105 0 -105 0 0 520 0 520 -210 0 -210 0 2 -1042z"/>
 <path d="M3650 5640 l0 -210 155 0 155 0 0 -609 c0 -335 3 -616 6 -625 5 -14 -12 -16 -155 -16 l-161 0 0 -210 0 -210 518 2 517 3 3 208 2 207 -161 0 c-143 0 -160 2 -155 16 3 9 6 290 6 625 l0 608 153 3 152 3 0 205 0 205 -517 3 -518 2 0 -210z"/>
 <path d="M5217 5843 c-4 -3 -7 -149 -7 -322 l0 -316 -155 -155 -155 -155 2 -565 3 -565 205 0 205 0 2 478 2 478 50 52 50 52 56 -55 55 -54 0 -478 0 -478 205 0 205 0 0 569 0 570 -112 116 c-62 65 -125 123 -140 131 -16 8 -28 21 -28 29 0 8 -7 15 -15 15 -13 0 -15 43 -15 330 l0 330 -203 0 c-112 0 -207 -3 -210 -7z"/>
 <path d="M6155 5838 c-3 -7 -4 -476 -3 -1043 l3 -1030 210 0 210 0 0 833 0 832 98 0 c53 0 99 1 102 3 3 1 7 -374 8 -833 l2 -835 205 0 205 0 3 1043 2 1042 -520 0 c-407 0 -522 -3 -525 -12z"/>
 <path d="M7410 4805 l0 -1045 520 0 520 0 0 1039 0 1039 -22 6 c-13 3 -105 6 -205 6 l-183 0 -2 -832 -3 -833 -104 0 -103 0 -2 830 -1 830 -208 3 -207 2 0 -1045z"/>
 </g>
<g id="layer112" fill="#fffefe" stroke="none">
 <path d="M1140 5340 l0 -512 316 -313 c225 -223 315 -318 311 -329 -5 -14 -46 -16 -314 -18 l-308 -3 0 -200 0 -200 510 0 510 0 3 310 2 309 -97 98 c-54 54 -103 98 -110 98 -7 0 -13 6 -13 12 0 7 -88 101 -195 208 l-194 195 -3 220 -3 220 305 0 305 0 0 205 0 205 -512 3 -513 3 0 -511z"/>
 <path d="M2392 4808 l3 -1043 205 0 205 0 0 313 c0 243 3 312 13 312 6 1 53 1 102 1 50 0 93 0 98 -1 4 0 7 -141 7 -312 l0 -313 205 0 205 0 3 1043 2 1042 -210 0 -210 0 0 -520 0 -520 -105 0 -105 0 0 520 0 520 -210 0 -210 0 2 -1042z"/>
 <path d="M3650 5651 c0 -161 3 -201 14 -211 11 -8 57 -11 158 -8 l143 3 -2 -630 -3 -630 -155 -3 -155 -3 0 -204 0 -205 518 2 517 3 0 200 0 200 -153 5 -152 5 -3 630 -2 630 155 0 155 0 0 205 0 205 -517 3 -518 2 0 -199z"/>
 <path d="M5217 5843 c-4 -4 -7 -153 -7 -332 1 -263 -1 -326 -12 -329 -18 -6 -248 -234 -248 -247 0 -6 -10 -15 -22 -20 l-23 -10 0 -570 0 -570 205 0 205 0 2 484 2 484 49 50 50 50 56 -59 55 -59 1 -477 0 -478 205 0 205 0 0 562 0 562 -75 76 c-41 43 -77 75 -80 72 -3 -3 -5 -1 -5 5 0 6 -36 46 -80 88 l-80 78 -2 321 -3 321 -196 3 c-107 1 -199 -1 -202 -5z"/>
 <path d="M6175 5838 c-3 -7 -4 -476 -3 -1043 l3 -1030 190 0 190 0 5 833 5 834 108 0 108 0 2 -834 2 -833 205 0 205 0 3 1043 2 1042 -510 0 c-399 0 -512 -3 -515 -12z"/>
 <path d="M7425 5838 c-3 -7 -4 -476 -3 -1043 l3 -1030 505 0 505 0 3 1034 c2 821 0 1036 -10 1043 -7 4 -97 8 -200 8 l-188 0 -2 -837 -3 -838 -104 0 -104 0 -1 835 -1 835 -198 3 c-152 2 -199 0 -202 -10z"/>
 </g>

</svg>